# xmcd CD database file
#
# Track frame offsets:
#	160
#	18897
#	40745
#	55967
#	71145
#	83325
#	95935
#	107090
#	129805
#	141757
#	153180
#	164397
#	178962
#	192460
#	207385
#	223342
#	239140
#	257922
#	276272
#	286775
#	297177
#	308527
#	331262
#	342677
#
# Disc length: 4762 seconds
#
# Revision: 1
# Processed by: cddbd v1.4PL0 Copyright (c) Steve Scherf et al.
# Submitted via: CDex 1.40Beta8
#
DISCID=75129818
DTITLE=Tommy Dell - The Best Of - Volume 1
DYEAR=1997
DGENRE=Country
TTITLE0=Cry To Me
TTITLE1=Gaurdian Angel (& Chrissy Jackson)
TTITLE2=Always On My Mind
TTITLE3=Maria
TTITLE4=Heaven Is My Woman's Love
TTITLE5=Sometimes (& Carolline du Preez)
TTITLE6=Don't Worry About Me
TTITLE7=Stop Those Lies (I Thank You)
TTITLE8=Say Forever You'll Be Mine (& Caroline du Preez)
TTITLE9=It Don't Hurt Anymore
TTITLE10=I Could Never Love This Way Again
TTITLE11=Anything That's Part Of You
TTITLE12=Golden Ring (& Caroline du Preez)
TTITLE13=Some Broken Hearts Never Mend
TTITLE14=Lady
TTITLE15=Love Me For Old Times Sake
TTITLE16=Maggie
TTITLE17=White Line To Denver
TTITLE18=China Doll
TTITLE19=The Green Door
TTITLE20=Please Help Me I'm Falling
TTITLE21=Teddy Bear
TTITLE22=Singing The Blues
TTITLE23=Little Rosa
EXTD=YEAR: 1997 ID3G: 2
EXTT0=
EXTT1=
EXTT2=
EXTT3=
EXTT4=
EXTT5=
EXTT6=
EXTT7=
EXTT8=
EXTT9=
EXTT10=
EXTT11=
EXTT12=
EXTT13=
EXTT14=
EXTT15=
EXTT16=
EXTT17=
EXTT18=
EXTT19=
EXTT20=
EXTT21=
EXTT22=
EXTT23=
PLAYORDER=
